<svg width="80" height="80" xmlns="http://www.w3.org/2000/svg">
    <g fill="none" fill-rule="evenodd">
        <path d="M48.066 61.627c6.628 0 10.087-16.79 10.087-23.418 0-6.627-5.025-9.209-11.652-9.209C39.874 29 24 42.507 24 49.135c0 6.627 17.439 12.492 24.066 12.492z"
              fill-opacity=".32" fill="#FF97AC"/>
        <path stroke="#FF6D8B" stroke-width="2" stroke-linecap="square"
              d="M49 45h6V25H35v6M43 55h2v-2M25 53v2h2M27 35h-2v2"/>
        <path stroke="#FF6D8B" stroke-width="2" stroke-linecap="square"
              d="M43 35h2v2M39 55h-2M33 55h-2M39 35h-2M33 35h-2M45 49v-2M25 49v-2M25 43v-2M45 43v-2"/>
    </g>
</svg>
